<?xml version="1.0" standalone="no"?>
<!DOCTYPE svg PUBLIC "-//W3C//DTD SVG 20010904//EN"
 "http://www.w3.org/TR/2001/REC-SVG-20010904/DTD/svg10.dtd">
<svg version="1.0" xmlns="http://www.w3.org/2000/svg"
 width="1400.000000pt" height="1120.000000pt" viewBox="0 0 1400.000000 1120.000000"
 preserveAspectRatio="xMidYMid meet">

<g transform="translate(0.000000,1120.000000) scale(0.100000,-0.100000)"
fill="#000000" stroke="none">
<path d="M140 11191 c0 -25 52 -65 150 -116 113 -57 131 -76 116 -123 -20 -63
-169 -50 -206 17 -11 21 -11 21 -63 -9 -28 -16 -53 -34 -55 -39 -2 -6 16 -30
40 -53 128 -129 385 -89 417 63 10 51 -5 127 -33 163 -13 18 -56 49 -94 69
-67 36 -74 37 -171 37 -56 0 -101 -4 -101 -9z"/>
<path d="M1515 11119 c12 -136 -11 -114 295 -285 151 -84 281 -153 289 -154
10 0 507 269 568 308 7 5 19 53 26 110 l13 102 -123 0 c-68 0 -123 -2 -123 -4
0 -2 18 -42 40 -88 l39 -83 -66 -3 c-36 -2 -71 -1 -77 1 -6 3 -27 44 -46 91
l-35 86 -204 -3 -203 -2 -35 -87 -35 -88 -79 0 c-43 0 -79 3 -79 6 0 3 16 39
35 81 19 42 35 80 35 84 0 5 -54 9 -121 9 l-121 0 7 -81z"/>
<path d="M5440 11176 c77 -202 244 -359 470 -441 99 -36 278 -46 384 -21 111
26 220 89 306 176 68 69 150 193 137 207 -3 3 -21 -6 -39 -20 -55 -41 -188
-100 -188 -84 0 2 25 21 55 41 48 32 145 138 145 159 0 4 -53 7 -117 7 l-118
-1 -45 -41 -45 -41 57 6 c31 3 77 15 103 26 61 27 54 12 -20 -44 -71 -53 -180
-101 -253 -111 -50 -6 -52 -8 -37 -24 20 -22 96 -55 150 -66 l40 -8 -60 -7
c-154 -19 -304 41 -442 175 -38 36 -53 45 -53 33 0 -28 27 -86 61 -128 40 -51
25 -49 -47 4 -73 54 -121 122 -148 210 -5 15 -21 17 -155 17 l-151 0 10 -24z"/>
<path d="M11670 11030 c0 -212 -8 -240 -70 -240 -33 0 -47 6 -70 31 l-29 32
-50 -32 -51 -33 15 -29 c27 -50 88 -83 165 -87 83 -5 127 8 167 51 47 50 53
82 53 288 l0 189 -65 0 -65 0 0 -170z"/>
<path d="M11920 11155 c0 -94 42 -144 170 -203 88 -40 120 -67 120 -99 0 -41
-33 -63 -95 -63 -49 0 -59 4 -95 36 l-39 36 -51 -28 c-27 -15 -50 -31 -50 -35
0 -18 65 -81 104 -102 54 -28 202 -31 256 -5 68 32 100 83 100 158 0 103 -39
150 -175 215 -103 48 -119 63 -113 105 l5 30 -69 0 -68 0 0 -45z"/>
<path d="M12186 11185 c8 -19 23 -19 48 0 19 14 18 15 -17 15 -28 0 -35 -3
-31 -15z"/>
<path d="M13290 11198 c0 -19 40 -331 42 -333 2 -1 130 -72 286 -158 l283
-156 49 27 50 27 0 253 0 252 -139 0 -139 0 -42 -105 -42 -105 -79 0 c-43 0
-79 2 -79 4 0 3 25 60 56 128 31 68 60 133 65 146 l9 22 -160 0 c-88 0 -160
-1 -160 -2z"/>
<path d="M7436 11181 c-19 -7 -19 -8 0 -13 13 -3 21 0 21 8 0 8 -1 14 -1 13
-1 0 -10 -4 -20 -8z"/>
<path d="M7400 11140 c-6 -11 -9 -20 -8 -20 2 0 11 9 21 20 9 11 13 20 7 20
-5 0 -14 -9 -20 -20z"/>
<path d="M3460 9411 l0 -691 95 0 96 0 201 115 c122 70 208 113 217 110 9 -3
102 -56 208 -116 l192 -110 98 3 98 3 -4 680 c-1 374 -5 682 -7 684 -1 2 -126
-66 -276 -151 -150 -85 -283 -160 -295 -167 -20 -10 -53 6 -315 155 -161 91
-296 168 -300 171 -5 2 -8 -307 -8 -686z m398 234 c2 -1 -23 -17 -55 -35 -32
-18 -77 -44 -100 -57 l-43 -25 0 116 0 115 98 -56 c53 -31 98 -57 100 -58z
m609 -112 c-2 -2 -49 23 -105 54 -82 47 -98 60 -84 67 9 6 55 31 102 58 l85
47 3 -111 c1 -61 1 -112 -1 -115z m-276 -81 c74 -43 142 -83 152 -89 16 -8 -3
-22 -125 -93 -78 -46 -148 -83 -154 -83 -6 0 -76 38 -156 84 l-146 84 127 74
c69 40 135 79 146 87 11 7 21 13 21 13 1 1 62 -34 135 -77z m-430 -328 c55
-31 98 -58 97 -59 -9 -9 -183 -107 -192 -108 -7 -1 -11 37 -12 111 -1 61 0
112 3 112 3 0 50 -25 104 -56z m709 -54 c0 -60 -4 -110 -9 -110 -12 0 -191
103 -191 110 0 6 181 109 193 110 4 0 7 -49 7 -110z"/>
<path d="M1390 9455 l0 -610 305 305 c168 168 305 305 305 305 0 0 -137 137
-305 305 l-305 304 0 -609z"/>
<path d="M111 10006 c-14 -55 -13 -69 1 -36 6 14 10 29 9 33 -1 4 3 17 9 27 6
11 7 20 2 20 -6 0 -15 -20 -21 -44z"/>
<path d="M158 10033 c17 -7 15 -32 -3 -39 -8 -4 -15 -11 -15 -17 0 -6 10 -2
21 10 22 22 20 54 -3 52 -10 0 -10 -2 0 -6z"/>
<path d="M262 9954 c-24 -49 -23 -58 11 -75 21 -10 21 -10 -1 8 -15 12 -21 25
-16 36 7 20 9 20 37 6 l22 -10 -22 18 c-32 26 -16 52 21 35 35 -16 33 -6 -2
12 -29 15 -29 15 -50 -30z"/>
<path d="M7520 9985 c0 -3 28 -53 63 -112 72 -123 101 -173 129 -223 11 -19
35 -60 53 -90 18 -30 60 -102 93 -160 34 -58 67 -114 75 -124 12 -18 22 -4
118 163 57 100 111 195 120 209 9 15 57 98 107 185 l91 157 -132 0 -132 0 -42
-73 c-23 -39 -59 -103 -81 -140 l-39 -68 -82 140 -83 141 -129 0 c-71 0 -129
-2 -129 -5z"/>
<path d="M151 9944 c0 -11 3 -14 6 -6 3 7 2 16 -1 19 -3 4 -6 -2 -5 -13z"/>
<path d="M11768 9933 c7 -3 12 -23 12 -48 0 -25 -5 -45 -12 -48 -7 -3 3 -5 22
-5 19 0 27 2 18 5 -14 3 -18 15 -18 48 0 25 5 45 13 48 6 3 -1 5 -18 5 -16 0
-24 -2 -17 -5z"/>
<path d="M13190 9327 c0 -334 1 -607 3 -607 1 0 138 136 304 303 l303 302
-305 305 -305 305 0 -608z"/>
<path d="M11657 9873 c5 -48 4 -53 -15 -53 -13 0 -24 10 -30 28 -6 15 -11 21
-11 14 -2 -24 20 -52 40 -52 27 0 34 23 21 73 l-10 42 5 -52z"/>
<path d="M11955 9907 c19 -15 13 -37 -10 -37 -9 0 -12 -6 -9 -15 5 -13 10 -12
25 6 23 27 24 45 3 53 -25 10 -29 7 -9 -7z"/>
<path d="M11591 9894 c0 -11 3 -14 6 -6 3 7 2 16 -1 19 -3 4 -6 -2 -5 -13z"/>
<path d="M366 9891 c-4 -5 -2 -12 3 -15 5 -4 12 -2 15 3 4 5 2 12 -3 15 -5 4
-12 2 -15 -3z"/>
<path d="M11906 9864 c-4 -20 -5 -38 -3 -40 3 -3 8 11 11 32 4 20 5 38 3 40
-3 3 -8 -11 -11 -32z"/>
<path d="M12060 9830 c-26 -51 -25 -54 8 -69 l27 -12 -23 19 c-23 18 -23 19
-6 55 11 23 23 36 31 32 36 -14 45 -15 23 -1 -35 22 -37 21 -60 -24z"/>
<path d="M11462 9848 c-15 -15 -15 -43 -2 -68 10 -19 77 -47 87 -36 4 3 1 6
-5 6 -7 0 -12 8 -13 18 0 10 -3 12 -6 5 -7 -18 -27 -16 -46 5 -20 22 -22 53
-5 70 7 7 10 12 7 12 -3 0 -10 -5 -17 -12z"/>
<path d="M483 9844 c3 -6 -7 -24 -24 -40 -27 -26 -32 -27 -52 -15 -20 13 -21
13 -8 -2 18 -23 34 -21 57 4 10 12 27 24 37 28 18 7 18 8 1 22 -10 7 -15 9
-11 3z"/>
<path d="M11507 9826 c10 -13 19 -23 21 -21 5 5 -22 45 -31 45 -4 0 0 -11 10
-24z"/>
<path d="M6365 9778 c-16 -34 -35 -66 -40 -72 -6 -6 -18 -29 -28 -51 l-18 -41
61 -107 c34 -59 65 -107 68 -107 6 0 26 32 109 177 l25 43 -63 110 c-35 60
-68 110 -74 109 -5 0 -23 -28 -40 -61z"/>
<path d="M5580 9811 c-7 -13 -7 -22 0 -26 5 -3 10 -4 10 0 0 3 9 1 20 -5 14
-7 20 -7 20 0 0 5 -4 10 -10 10 -5 0 -10 6 -10 14 0 24 -18 28 -30 7z"/>
<path d="M6120 9810 c-6 -10 -9 -23 -8 -27 2 -4 -7 -20 -20 -34 -23 -26 -86
-130 -257 -426 -55 -94 -103 -169 -107 -165 -4 4 -36 57 -71 118 l-65 111 28
44 c15 24 45 78 68 119 l41 76 -72 2 c-97 2 -110 5 -124 22 -18 22 -16 30 7
30 16 0 20 7 20 35 0 19 -4 35 -8 35 -8 0 -63 -89 -64 -105 -1 -5 -7 -14 -14
-20 -7 -5 -42 -62 -79 -126 l-67 -117 135 -233 134 -234 131 -3 131 -3 25 38
c21 33 353 610 386 672 8 15 8 21 1 17 -6 -4 -11 -3 -11 1 0 5 -18 29 -40 53
-22 25 -37 51 -34 59 2 8 -5 24 -17 37 -11 12 -18 27 -14 33 3 6 -1 11 -9 11
-8 0 -20 -9 -26 -20z"/>
<path d="M12087 9809 c7 -7 15 -10 18 -7 3 3 -2 9 -12 12 -14 6 -15 5 -6 -5z"/>
<path d="M12166 9771 c-4 -5 -2 -12 3 -15 5 -4 12 -2 15 3 4 5 2 12 -3 15 -5
4 -12 2 -15 -3z"/>
<path d="M11325 9750 c-18 -20 -18 -21 20 -60 36 -37 40 -39 57 -23 21 19 15
32 -7 13 -12 -10 -18 -10 -30 0 -14 11 -14 15 2 34 18 21 18 21 -3 3 -20 -16
-22 -16 -35 -1 -12 14 -10 19 10 35 13 11 19 19 14 19 -6 0 -18 -9 -28 -20z"/>
<path d="M537 9733 c-4 -3 -7 -21 -7 -40 0 -39 -25 -46 -40 -10 -6 15 -9 17
-9 6 -1 -22 25 -43 44 -35 10 3 15 19 15 42 0 31 3 36 20 31 11 -3 18 -1 14 4
-6 11 -28 12 -37 2z"/>
<path d="M12283 9723 c11 -10 -44 -63 -67 -64 -17 -1 -18 -2 -4 -6 10 -2 33 7
51 21 19 14 37 23 42 18 4 -4 2 3 -4 16 -6 12 -15 22 -18 22 -3 0 -3 -3 0 -7z"/>
<path d="M0 9626 c0 -65 3 -76 17 -76 9 0 36 -9 59 -21 84 -40 108 -157 48
-236 -27 -36 -71 -63 -104 -63 -18 0 -20 -6 -20 -70 l0 -70 35 0 c85 0 193 74
238 162 22 44 27 67 27 129 0 86 -11 126 -51 185 -48 70 -114 111 -211 129
l-38 7 0 -76z"/>
<path d="M11227 9622 c-23 -26 -22 -28 23 -57 43 -27 68 -35 32 -9 -26 18 -21
34 11 35 15 0 17 2 7 6 -8 4 -21 14 -28 25 -16 23 -25 23 -45 0z m38 -17 c0
-22 -14 -28 -34 -16 -12 8 -13 12 -1 26 16 20 35 14 35 -10z"/>
<path d="M12337 9613 c-4 -3 -7 -21 -7 -40 0 -26 -4 -33 -19 -33 -11 0 -21 8
-24 18 -3 13 -4 12 -3 -3 2 -32 50 -28 54 5 6 46 11 54 27 40 9 -7 15 -8 15
-2 0 5 -7 13 -16 16 -19 7 -19 7 -27 -1z"/>
<path d="M11665 9540 c-77 -40 -111 -73 -140 -135 -35 -73 -41 -147 -19 -225
24 -87 100 -167 189 -200 194 -72 405 74 405 280 0 36 -4 80 -9 97 -17 59 -78
138 -133 173 -48 30 -62 34 -143 38 -86 4 -93 2 -150 -28z m218 -135 c26 -12
41 -29 56 -65 12 -27 21 -61 21 -75 0 -39 -27 -91 -66 -125 -30 -26 -43 -30
-91 -30 -46 0 -65 5 -96 27 -39 27 -77 93 -77 134 0 27 38 99 64 121 47 40
122 45 189 13z"/>
<path d="M6271 9135 c-13 -17 -121 -204 -121 -209 0 -3 58 -6 130 -6 l129 0
15 29 c9 16 12 31 9 35 -4 3 -1 6 4 6 11 0 93 134 93 152 0 13 -249 6 -259 -7z"/>
<path d="M264 8807 c-19 -22 10 -39 41 -25 25 11 26 13 9 25 -22 16 -36 16
-50 0z"/>
<path d="M11478 8698 c10 -13 10 -17 0 -21 -10 -4 -10 -6 1 -6 11 -1 11 -4 0
-18 -13 -17 -13 -17 7 0 11 9 24 17 29 17 4 0 1 -8 -6 -17 -13 -17 -13 -17 7
0 11 9 24 17 29 17 4 0 1 -8 -6 -17 -13 -17 -13 -17 7 0 11 9 24 17 29 17 4 0
1 -8 -6 -17 -13 -17 -13 -17 7 0 18 15 46 17 251 17 171 0 232 -3 235 -12 3
-9 12 -9 37 2 l33 13 -28 15 c-20 10 -29 11 -32 3 -3 -8 -72 -11 -240 -11
-210 0 -238 2 -256 18 -20 16 -20 16 -7 0 7 -10 10 -18 6 -18 -5 0 -18 8 -29
18 -20 16 -20 16 -7 0 7 -10 10 -18 6 -18 -5 0 -18 8 -29 18 -20 16 -20 16 -7
0 7 -10 10 -18 6 -18 -5 0 -18 8 -29 18 -17 14 -19 14 -8 0z"/>
<path d="M7918 8193 c7 -3 12 -23 12 -48 0 -25 -5 -45 -12 -48 -7 -3 3 -5 22
-5 19 0 27 2 18 5 -14 3 -18 15 -18 48 0 25 5 45 13 48 6 3 -1 5 -18 5 -16 0
-24 -2 -17 -5z"/>
<path d="M8070 8179 c0 -5 4 -8 9 -5 4 3 17 -1 27 -9 18 -14 18 -16 2 -29 -10
-7 -18 -19 -18 -26 0 -7 9 -1 20 13 26 33 25 46 -6 57 -32 12 -34 12 -34 -1z"/>
<path d="M7801 8164 c0 -11 3 -14 6 -6 3 7 2 16 -1 19 -3 4 -6 -2 -5 -13z"/>
<path d="M7741 8154 c0 -11 3 -14 6 -6 3 7 2 16 -1 19 -3 4 -6 -2 -5 -13z"/>
<path d="M5765 8142 c-30 -12 -75 -68 -113 -138 -9 -18 -52 -194 -52 -215 0
-18 35 -16 75 3 36 18 48 31 67 75 13 29 26 53 29 53 4 0 13 -17 21 -37 14
-38 17 -85 5 -113 -3 -8 -18 -53 -33 -100 -15 -47 -40 -115 -57 -153 -32 -72
-34 -74 -162 -103 -61 -14 -214 -93 -231 -119 -35 -54 11 -100 123 -125 l53
-12 57 50 c32 27 80 63 106 80 43 27 46 31 27 37 -11 4 -27 17 -36 30 -12 18
-12 27 -3 49 7 14 16 26 21 26 5 0 7 -4 4 -8 -3 -5 2 -18 10 -30 50 -71 244
-100 439 -66 104 18 154 45 203 109 l33 43 -16 104 c-17 117 -46 201 -80 238
-13 14 -28 44 -35 68 -31 119 -85 193 -175 240 -44 23 -62 26 -148 27 -60 0
-112 -5 -132 -13z m147 -364 c8 -21 -2 -38 -23 -38 -22 0 -27 35 -6 43 20 9
25 8 29 -5z m83 -28 c4 -6 14 -9 23 -8 10 2 16 -3 14 -11 -1 -7 5 -19 15 -27
16 -12 15 -13 -14 -14 -17 0 -35 -5 -38 -11 -5 -7 -14 -3 -26 9 -15 17 -16 24
-6 46 13 28 22 32 32 16z m-65 -57 c40 -28 49 -45 50 -97 0 -60 -36 -128 -80
-151 -16 -8 -53 -15 -82 -14 -50 1 -51 1 -23 11 41 14 71 44 95 93 39 80 17
133 -62 150 -23 5 -27 9 -17 16 23 15 93 10 119 -8z m114 -76 c17 -17 -2 -47
-24 -38 -17 7 -20 32 -5 43 13 10 14 10 29 -5z"/>
<path d="M8060 8145 c0 -8 4 -15 10 -15 5 0 7 7 4 15 -4 8 -8 15 -10 15 -2 0
-4 -7 -4 -15z"/>
<path d="M3460 7550 l0 -600 600 0 600 0 0 600 0 600 -600 0 -600 0 0 -600z
m690 455 l0 -45 -115 0 -115 0 -2 -357 -3 -358 -47 -3 -48 -3 0 360 0 361
-115 0 -115 0 0 45 0 45 280 0 280 0 0 -45z m288 -137 c31 -9 32 -11 32 -64 0
-30 -2 -54 -3 -54 -2 0 -19 8 -38 17 -19 10 -65 19 -105 21 -57 3 -79 0 -112
-17 -51 -26 -70 -74 -53 -132 12 -41 32 -57 166 -137 83 -49 143 -104 161
-149 21 -49 18 -137 -6 -184 -57 -110 -239 -150 -393 -85 -36 15 -37 16 -37
70 0 31 2 56 4 56 2 0 26 -11 53 -25 63 -32 129 -44 194 -34 59 9 84 28 99 75
25 74 -9 123 -137 197 -159 92 -203 144 -203 240 0 94 37 154 118 193 65 30
182 36 260 12z"/>
<path d="M9400 8134 c-171 -61 -267 -265 -194 -413 44 -87 136 -135 223 -116
29 6 99 61 89 70 -2 2 -22 -2 -43 -10 -48 -17 -109 -10 -147 16 -14 11 -31 19
-38 19 -6 0 -8 5 -5 11 12 18 -4 59 -23 59 -16 1 -16 1 1 14 18 14 24 71 7 81
-17 11 -11 23 9 18 26 -7 41 25 35 73 l-5 39 16 -28 c15 -26 17 -27 45 -12 17
9 30 24 30 34 0 11 3 28 7 38 6 14 9 10 13 -17 4 -30 9 -35 36 -38 24 -2 33 2
42 22 6 14 20 30 31 35 20 11 20 10 5 -26 -15 -36 -15 -38 5 -55 21 -16 23
-16 58 8 54 36 74 31 35 -9 -35 -36 -38 -48 -20 -77 16 -25 11 -29 -60 -40
-63 -11 -114 -30 -146 -55 -25 -19 -20 -23 45 -35 41 -8 67 -7 109 4 30 8 56
13 57 12 1 -1 -94 -188 -212 -414 -118 -227 -215 -415 -215 -417 0 -3 35 -5
79 -5 l78 0 20 48 c33 79 341 667 349 665 5 -1 239 -516 314 -690 9 -21 16
-23 97 -23 64 1 83 3 71 11 -20 11 -108 131 -108 147 0 5 7 15 15 22 23 19 42
-3 50 -57 8 -55 23 -90 41 -97 24 -9 17 85 -27 366 -57 372 -68 408 -135 468
-46 40 -103 66 -167 75 -32 5 -50 13 -54 24 -39 123 -93 195 -179 237 -69 34
-168 42 -234 18z m573 -559 c4 -8 2 -17 -3 -20 -21 -13 -9 -57 22 -86 36 -32
32 -37 -12 -14 -29 15 -60 61 -60 89 0 16 26 46 40 46 4 0 10 -7 13 -15z m25
-80 c-3 -3 -9 2 -12 12 -6 14 -5 15 5 6 7 -7 10 -15 7 -18z"/>
<path d="M7811 8124 c0 -11 3 -14 6 -6 3 7 2 16 -1 19 -3 4 -6 -2 -5 -13z"/>
<path d="M0 8108 c0 -15 21 -43 59 -80 31 -32 66 -73 76 -92 l18 -34 101 -5
c56 -3 111 -8 124 -12 17 -6 22 -3 22 10 0 20 23 45 42 45 8 0 18 15 23 33 8
24 15 31 31 30 14 -1 25 6 32 21 8 19 6 25 -12 36 -11 8 -24 13 -28 12 -5 -1
-8 2 -8 7 0 5 -19 17 -42 27 -35 15 -78 19 -240 22 l-198 4 0 -24z"/>
<path d="M7751 8119 c-2 -39 57 -68 65 -31 1 7 0 8 -3 2 -10 -20 -41 -10 -51
18 -6 15 -11 20 -11 11z"/>
<path d="M8210 8090 c-26 -51 -25 -54 8 -69 l27 -12 -23 19 c-15 12 -21 24
-16 35 7 20 9 20 37 6 20 -10 20 -9 -1 9 -22 17 -23 20 -7 35 9 9 12 17 6 17
-6 0 -20 -18 -31 -40z"/>
<path d="M7632 8109 c10 -5 24 -19 33 -32 8 -12 15 -16 15 -9 0 16 -37 52 -52
52 -8 0 -6 -5 4 -11z"/>
<path d="M8052 8100 c0 -14 2 -19 5 -12 2 6 2 18 0 25 -3 6 -5 1 -5 -13z"/>
<path d="M7601 8069 c-1 -9 9 -24 22 -35 22 -19 22 -19 6 1 -9 11 -19 27 -22
35 -5 13 -6 13 -6 -1z"/>
<path d="M7666 8031 c-5 -7 -3 -18 3 -24 14 -14 20 -6 11 17 -5 15 -9 16 -14
7z"/>
<path d="M8316 8031 c-4 -5 -2 -12 3 -15 5 -4 12 -2 15 3 4 5 2 12 -3 15 -5 4
-12 2 -15 -3z"/>
<path d="M7475 8010 c-19 -20 -18 -22 18 -58 l37 -37 22 25 23 24 -22 -18
c-19 -16 -25 -17 -38 -6 -14 12 -14 15 2 33 18 19 17 20 -4 6 -18 -10 -25 -11
-35 -1 -9 9 -7 16 7 32 10 11 16 20 13 20 -3 0 -13 -9 -23 -20z"/>
<path d="M11760 7993 c51 -36 115 -100 158 -158 l44 -60 104 -5 c90 -4 105 -3
116 13 7 9 18 17 25 17 7 0 13 5 13 10 0 6 7 10 15 10 30 0 63 45 66 91 l4 44
-60 25 c-57 23 -72 24 -285 27 -217 3 -224 3 -200 -14z"/>
<path d="M8433 7984 c3 -6 -7 -24 -24 -40 -25 -24 -33 -27 -49 -16 -16 10 -18
9 -14 -3 9 -22 38 -18 60 6 10 12 27 24 37 28 18 7 18 8 1 22 -10 7 -15 9 -11
3z"/>
<path d="M1390 7735 l0 -235 200 0 200 0 0 -40 0 -40 160 0 160 0 0 40 0 40
360 0 360 0 0 235 0 235 -720 0 -720 0 0 -235z m400 -1 l0 -165 -42 3 -43 3
-3 118 -3 117 -34 0 -35 0 0 -120 0 -120 -85 0 -85 0 0 165 0 165 165 0 165 0
0 -166z m400 1 l0 -165 -80 0 -80 0 0 -40 0 -41 -82 3 -83 3 -3 203 -2 202
165 0 165 0 0 -165z m560 0 l0 -165 -40 0 -39 0 -3 118 -3 117 -37 3 -38 3 0
-121 0 -121 -42 3 -43 3 -2 115 -1 115 -36 3 -36 3 0 -121 0 -121 -82 3 -83 3
-3 150 c-1 82 0 155 2 162 4 10 58 13 246 13 l240 0 0 -165z"/>
<path d="M2030 7735 l0 -75 35 0 35 0 0 75 0 75 -35 0 -35 0 0 -75z"/>
<path d="M12328 7903 c6 -2 18 -2 25 0 6 3 1 5 -13 5 -14 0 -19 -2 -12 -5z"/>
<path d="M7374 7879 c-18 -20 -18 -21 1 -36 11 -8 34 -21 50 -29 l30 -15 -25
20 c-27 21 -23 25 30 34 24 4 24 4 -2 6 -17 0 -28 7 -28 15 0 8 -7 17 -16 20
-21 8 -18 9 -40 -15z m41 -14 c0 -22 -14 -28 -34 -16 -12 8 -13 12 -1 26 16
20 35 14 35 -10z"/>
<path d="M8487 7874 c-4 -4 -7 -22 -7 -41 0 -39 -25 -46 -40 -10 -6 15 -9 17
-9 6 -1 -22 25 -43 44 -35 9 3 15 18 15 41 0 34 21 50 33 25 3 -6 4 -5 3 2 -3
15 -28 22 -39 12z"/>
<path d="M13190 7615 l0 -235 200 0 200 0 0 -40 0 -40 154 0 155 0 3 38 c3 37
3 37 51 40 l47 3 0 235 0 234 -405 0 -405 0 0 -235z m400 0 l0 -165 -45 0 -45
0 0 120 0 120 -35 0 -35 0 0 -120 0 -120 -85 0 -85 0 0 165 0 165 165 0 165 0
0 -165z m400 0 l0 -165 -80 0 -80 0 0 -40 0 -40 -85 0 -85 0 0 205 0 205 165
0 165 0 0 -165z"/>
<path d="M13830 7615 l0 -75 35 0 35 0 0 75 0 75 -35 0 -35 0 0 -75z"/>
<path d="M7870 7828 c-145 -48 -241 -185 -227 -324 20 -192 209 -324 385 -269
70 22 97 39 140 84 62 65 76 105 77 211 0 108 -16 150 -82 216 -74 73 -207
110 -293 82z m180 -177 c81 -73 75 -188 -13 -252 -44 -32 -84 -37 -150 -17
-80 24 -121 139 -81 225 27 55 78 84 147 82 51 -2 63 -6 97 -38z"/>
<path d="M12182 7758 c2 -6 10 -14 16 -16 7 -2 10 2 6 12 -7 18 -28 22 -22 4z"/>
<path d="M6365 7460 c9 -15 -32 -81 -67 -109 -51 -41 -188 -69 -348 -72 -81
-1 -96 -4 -96 -18 0 -9 -4 -62 -7 -117 l-8 -102 26 -4 c46 -9 304 11 342 27
20 8 66 15 104 15 38 0 86 6 106 14 21 8 76 26 123 40 120 36 191 105 178 172
-5 25 -155 108 -252 139 -85 27 -111 31 -101 15z"/>
<path d="M5645 7234 c-44 -30 -88 -62 -98 -73 -18 -18 -18 -19 15 -39 31 -19
110 -43 188 -56 l35 -6 23 82 c31 115 30 124 -15 131 -21 3 -45 7 -53 10 -8 3
-51 -19 -95 -49z"/>
<path d="M7628 6958 c10 -13 10 -17 0 -21 -10 -4 -10 -6 1 -6 11 -1 11 -4 0
-18 -13 -17 -13 -17 7 0 11 9 24 17 29 17 4 0 1 -8 -6 -17 -13 -17 -13 -17 7
0 11 9 24 17 29 17 4 0 1 -8 -6 -17 -13 -17 -13 -17 7 0 11 9 24 17 29 17 4 0
1 -8 -6 -17 -13 -17 -13 -17 7 0 18 15 46 17 257 17 151 0 237 -4 237 -10 0
-14 13 -12 35 4 18 13 18 14 -4 26 -17 8 -26 9 -34 1 -7 -7 -88 -11 -241 -11
-204 0 -232 2 -250 18 -20 16 -20 16 -7 0 7 -10 10 -18 6 -18 -5 0 -18 8 -29
18 -20 16 -20 16 -7 0 7 -10 10 -18 6 -18 -5 0 -18 8 -29 18 -20 16 -20 16 -7
0 7 -10 10 -18 6 -18 -5 0 -18 8 -29 18 -17 14 -19 14 -8 0z"/>
<path d="M70 6156 c-14 -8 -35 -28 -47 -45 l-23 -30 0 -585 0 -586 42 -27 c67
-43 205 -90 297 -103 225 -31 445 55 590 230 49 59 107 157 98 166 -2 3 -31
-13 -63 -34 -60 -40 -150 -79 -160 -70 -3 3 10 14 28 25 147 86 225 240 219
428 -1 27 -5 24 -39 -37 -64 -115 -124 -172 -70 -66 31 59 33 69 33 168 0 90
-3 111 -22 147 -29 54 -45 64 -32 21 5 -18 9 -60 9 -93 0 -137 -63 -279 -175
-393 l-73 -75 57 6 c32 2 76 14 99 26 58 30 53 11 -11 -36 -90 -69 -216 -123
-284 -123 -23 0 -33 -4 -31 -12 7 -20 110 -69 158 -75 59 -8 27 -19 -60 -22
-127 -3 -244 46 -377 159 -47 39 -73 55 -73 45 0 -25 25 -78 53 -111 37 -44
34 -49 -14 -22 -136 76 -212 253 -180 420 21 106 84 189 183 239 79 40 90 41
182 4 232 -94 423 -106 486 -30 8 10 13 36 12 61 -4 99 -130 232 -300 318 -64
32 -189 66 -246 66 -29 0 -54 9 -85 30 -36 25 -54 30 -100 30 -31 -1 -67 -7
-81 -14z m468 -294 c4 -28 -24 -40 -45 -19 -14 13 -14 19 -3 32 18 22 44 15
48 -13z"/>
<path d="M7840 6005 c-173 -63 -319 -115 -323 -117 -10 -4 90 -879 102 -891 5
-5 134 -78 287 -162 l279 -154 30 17 c16 10 144 81 284 157 157 87 256 148
261 160 15 36 113 866 104 875 -5 4 -117 45 -249 90 -132 45 -278 95 -325 111
-47 16 -96 28 -110 28 -14 -1 -167 -52 -340 -114z m516 -407 c75 -161 154
-331 176 -378 22 -47 50 -105 61 -130 12 -25 23 -49 25 -53 2 -4 -31 -7 -73
-5 l-77 3 -42 100 -43 100 -190 3 -190 2 -40 -102 -40 -103 -78 -5 c-42 -3
-79 -2 -81 1 -2 4 5 24 15 45 10 22 99 217 196 434 98 217 184 408 192 424
l16 30 18 -37 c11 -20 81 -168 155 -329z"/>
<path d="M8166 5619 c-8 -19 -32 -78 -55 -133 -23 -54 -41 -102 -41 -107 0 -5
56 -9 125 -9 69 0 125 2 125 4 0 6 -129 269 -135 275 -3 2 -11 -11 -19 -30z"/>
<path d="M11810 6034 c-64 -61 -74 -67 -137 -80 -94 -20 -111 -39 -122 -138
-9 -76 -10 -80 -54 -120 -65 -59 -70 -79 -46 -172 l20 -76 -21 -42 c-28 -59
-25 -84 18 -141 21 -27 56 -88 79 -135 127 -260 386 -423 673 -423 194 0 322
53 460 192 79 80 146 178 138 202 -2 5 -19 -2 -38 -16 -48 -36 -118 -71 -160
-80 l-35 -7 46 31 c131 88 219 246 219 393 0 55 -12 62 -31 17 -15 -37 -98
-153 -105 -146 -2 2 10 35 28 72 27 59 32 80 32 149 1 84 -20 162 -50 187 -13
11 -14 9 -7 -17 4 -16 7 -63 6 -104 -3 -134 -69 -276 -183 -389 l-65 -64 57 6
c31 3 78 15 105 26 l48 21 -45 -41 c-84 -75 -225 -139 -306 -139 -36 0 -37 -1
-20 -19 23 -26 79 -52 141 -66 l50 -12 -49 -8 c-149 -23 -319 44 -458 181 -32
31 -48 41 -48 30 0 -29 29 -88 67 -134 l36 -44 -41 21 c-101 52 -184 171 -203
293 -13 81 8 192 49 258 34 55 109 113 180 140 l52 20 73 -29 c257 -101 428
-115 492 -40 33 40 32 81 -4 145 -87 151 -306 284 -496 300 -38 4 -77 12 -85
19 -35 29 -82 45 -135 45 -57 0 -57 -1 -125 -66z m525 -244 c0 -18 -6 -26 -23
-28 -24 -4 -38 18 -28 44 3 9 15 14 28 12 17 -2 23 -10 23 -28z"/>
<path d="M2686 5631 c-3 -4 6 -6 19 -3 14 2 25 6 25 8 0 8 -39 4 -44 -5z"/>
<path d="M2201 5594 c0 -11 3 -14 6 -6 3 7 2 16 -1 19 -3 4 -6 -2 -5 -13z"/>
<path d="M2561 5597 c-13 -6 -31 -23 -39 -37 -14 -23 -13 -23 9 2 14 16 41 32
64 37 28 6 32 9 15 10 -14 0 -36 -5 -49 -12z"/>
<path d="M1857 5565 c-23 -48 -21 -59 2 -15 16 30 26 36 62 41 l44 6 -46 1
c-43 2 -46 0 -62 -33z"/>
<path d="M2722 5563 c-15 -48 -8 -55 8 -8 7 20 10 38 8 41 -3 2 -10 -13 -16
-33z"/>
<path d="M1770 5560 c-19 -11 -31 -19 -27 -20 11 0 67 29 67 35 0 7 -1 7 -40
-15z"/>
<path d="M2220 5550 c-19 -11 -30 -19 -25 -19 6 0 26 8 45 19 19 11 31 19 25
19 -5 0 -26 -8 -45 -19z"/>
<path d="M2302 5545 c-17 -37 -14 -45 4 -12 9 16 14 31 11 33 -2 2 -9 -7 -15
-21z"/>
<path d="M2021 5548 c-1 -9 -18 -31 -38 -48 -21 -18 -29 -28 -18 -22 31 16 68
59 62 74 -4 9 -6 8 -6 -4z"/>
<path d="M2410 5524 c-13 -13 -20 -24 -14 -24 12 0 50 38 43 44 -2 2 -15 -7
-29 -20z"/>
<path d="M13666 5522 c-2 -4 12 -6 32 -4 56 5 62 10 15 11 -23 1 -44 -3 -47
-7z"/>
<path d="M2130 5500 c-6 -11 -8 -20 -6 -20 3 0 10 9 16 20 6 11 8 20 6 20 -3
0 -10 -9 -16 -20z"/>
<path d="M13991 5504 c0 -11 3 -14 6 -6 3 7 2 16 -1 19 -3 4 -6 -2 -5 -13z"/>
<path d="M2181 5494 c0 -11 3 -14 6 -6 3 7 2 16 -1 19 -3 4 -6 -2 -5 -13z"/>
<path d="M2687 5475 c-24 -50 -20 -58 4 -12 11 22 19 41 17 43 -3 2 -12 -12
-21 -31z"/>
<path d="M13568 5494 c-16 -8 -28 -17 -28 -19 0 -10 16 -4 40 15 30 23 25 25
-12 4z"/>
<path d="M13642 5475 c-17 -37 -14 -45 4 -12 9 16 14 31 11 33 -2 2 -9 -7 -15
-21z"/>
<path d="M2508 5483 c-14 -2 -29 -11 -32 -20 -5 -12 -4 -13 7 -5 8 7 38 16 68
21 38 6 44 9 19 8 -19 0 -47 -2 -62 -4z"/>
<path d="M2290 5461 c-23 -6 -70 -72 -69 -96 0 -5 10 10 23 35 21 40 29 46 72
57 27 6 38 11 24 11 -14 0 -36 -3 -50 -7z"/>
<path d="M6304 5446 c-28 -13 -61 -38 -74 -56 -46 -64 -34 -185 24 -239 12
-12 68 -43 123 -70 100 -50 113 -62 113 -106 0 -72 -155 -74 -205 -3 l-15 23
-55 -30 c-30 -16 -55 -31 -55 -34 0 -16 58 -75 97 -98 36 -21 62 -27 123 -31
93 -5 139 8 191 55 51 46 66 98 49 171 -16 70 -60 114 -168 164 -122 58 -148
92 -102 138 28 28 75 26 106 -5 14 -14 28 -25 31 -25 14 0 93 56 93 66 0 21
-78 82 -117 93 -59 17 -103 13 -159 -13z"/>
<path d="M13505 5460 c-3 -6 1 -7 9 -4 18 7 21 14 7 14 -6 0 -13 -4 -16 -10z"/>
<path d="M13779 5434 l-34 -37 32 23 c18 13 34 29 37 37 8 20 3 17 -35 -23z"/>
<path d="M13980 5455 c0 -8 2 -15 4 -15 2 0 6 7 10 15 3 8 1 15 -4 15 -6 0
-10 -7 -10 -15z"/>
<path d="M2166 5445 c-3 -9 -6 -22 -5 -28 0 -7 5 -1 10 12 5 13 8 26 5 28 -2
2 -6 -3 -10 -12z"/>
<path d="M5950 5212 c0 -282 -2 -292 -68 -292 -27 0 -44 8 -68 31 l-31 30 -52
-32 -51 -32 17 -26 c42 -64 98 -91 190 -91 87 0 137 27 170 89 22 43 23 51 23
308 l0 263 -65 0 -65 0 0 -248z"/>
<path d="M2400 5442 c0 -6 -23 -30 -51 -52 -28 -22 -47 -40 -42 -40 16 0 108
88 101 96 -5 4 -8 2 -8 -4z"/>
<path d="M1840 5425 c-47 -18 -27 -18 30 -1 25 8 36 15 25 15 -11 0 -36 -7
-55 -14z"/>
<path d="M2456 5425 c-9 -26 -7 -32 5 -12 6 10 9 21 6 23 -2 3 -7 -2 -11 -11z"/>
<path d="M13919 5423 c-13 -16 -12 -17 4 -4 9 7 17 15 17 17 0 8 -8 3 -21 -13z"/>
<path d="M2031 5370 c-23 -33 -49 -66 -57 -75 -9 -8 -11 -15 -6 -15 5 0 24 21
42 48 18 26 45 59 58 75 14 15 21 27 15 27 -5 0 -29 -27 -52 -60z"/>
<path d="M2661 5404 c0 -11 3 -14 6 -6 3 7 2 16 -1 19 -3 4 -6 -2 -5 -13z"/>
<path d="M1968 5389 c-15 -24 -112 -99 -128 -99 -6 0 -8 5 -4 11 4 8 0 8 -15
0 -25 -14 -28 -23 -4 -14 11 4 14 3 9 -5 -4 -7 -14 -12 -23 -12 -9 0 -13 -3
-10 -7 15 -15 144 71 178 118 11 16 18 29 15 29 -3 0 -11 -9 -18 -21z"/>
<path d="M13966 5385 c-9 -26 -7 -32 5 -12 6 10 9 21 6 23 -2 3 -7 -2 -11 -11z"/>
<path d="M2253 5355 c-18 -8 -33 -17 -33 -20 0 -3 9 -1 19 5 27 14 51 13 31
-1 -12 -8 -12 -10 -1 -7 8 2 15 12 17 21 1 9 2 17 1 17 -1 -1 -17 -7 -34 -15z"/>
<path d="M2570 5360 c-11 -8 -7 -9 15 -4 37 8 45 14 19 14 -10 0 -26 -5 -34
-10z"/>
<path d="M2798 5363 c6 -2 18 -2 25 0 6 3 1 5 -13 5 -14 0 -19 -2 -12 -5z"/>
<path d="M13630 5355 c-47 -18 -27 -18 30 -1 25 8 36 15 25 15 -11 0 -36 -7
-55 -14z"/>
<path d="M1747 5325 c-9 -19 -15 -35 -12 -35 7 0 37 61 33 66 -3 2 -12 -12
-21 -31z"/>
<path d="M2648 5353 c12 -2 32 -2 45 0 12 2 2 4 -23 4 -25 0 -35 -2 -22 -4z"/>
<path d="M2748 5353 c6 -2 18 -2 25 0 6 3 1 5 -13 5 -14 0 -19 -2 -12 -5z"/>
<path d="M13824 5298 c-26 -35 -54 -69 -62 -75 -9 -7 -11 -13 -5 -13 6 0 34
31 62 69 29 38 57 72 64 75 9 3 9 5 0 5 -6 1 -33 -27 -59 -61z"/>
<path d="M2478 5343 c12 -2 32 -2 45 0 12 2 2 4 -23 4 -25 0 -35 -2 -22 -4z"/>
<path d="M13744 5302 c-17 -20 -60 -54 -95 -74 -68 -40 -74 -51 -10 -18 21 10
63 41 92 68 30 27 61 52 69 55 11 4 9 6 -5 6 -11 0 -33 -15 -51 -37z"/>
<path d="M2195 5321 c-3 -6 -11 -9 -16 -6 -5 3 -6 -1 -3 -9 5 -14 8 -14 21 0
9 8 13 17 10 20 -3 3 -8 0 -12 -5z"/>
<path d="M13565 5309 c-4 -6 -5 -12 -2 -15 2 -3 7 2 10 11 7 17 1 20 -8 4z"/>
<path d="M1755 5270 c-3 -6 1 -7 9 -4 18 7 21 14 7 14 -6 0 -13 -4 -16 -10z"/>
<path d="M1725 5250 c27 -12 43 -12 25 0 -8 5 -22 9 -30 9 -10 0 -8 -3 5 -9z"/>
<path d="M13921 5253 c-1 -6 -4 -20 -7 -30 -5 -17 -5 -17 6 0 6 10 9 23 6 30
-3 9 -5 9 -5 0z"/>
<path d="M13981 5237 c-13 -21 -12 -21 5 -5 10 10 16 20 13 22 -3 3 -11 -5
-18 -17z"/>
<path d="M1690 5220 c-6 -11 -9 -20 -8 -20 2 0 11 9 21 20 9 11 13 20 7 20 -5
0 -14 -9 -20 -20z"/>
<path d="M13570 5210 c-8 -5 -10 -10 -5 -10 6 0 17 5 25 10 8 5 11 10 5 10 -5
0 -17 -5 -25 -10z"/>
<path d="M13528 5193 c-9 -2 -24 -16 -33 -31 l-16 -27 20 24 c12 13 27 21 34
18 8 -3 14 1 14 9 0 8 -1 13 -1 13 -1 -1 -9 -3 -18 -6z"/>
<path d="M9540 3421 l0 -691 99 0 99 0 201 115 202 116 202 -116 203 -115 102
0 102 0 0 685 c0 380 -4 685 -9 685 -5 0 -132 -70 -282 -156 -151 -86 -284
-161 -296 -166 -18 -9 -62 13 -300 147 -153 87 -288 165 -300 173 l-23 14 0
-691z m309 285 c92 -53 93 -54 70 -69 -50 -31 -168 -97 -173 -97 -3 0 -6 50
-6 110 0 61 3 110 8 110 4 0 49 -25 101 -54z m701 -56 c0 -60 -3 -110 -6 -110
-10 0 -184 102 -189 111 -5 7 170 108 188 109 4 0 7 -49 7 -110z m-255 -204
c106 -61 142 -86 133 -93 -7 -6 -74 -45 -147 -87 l-135 -77 -41 23 c-22 13
-88 50 -147 83 -59 33 -108 62 -108 65 0 8 272 168 288 169 7 1 78 -37 157
-83z m-425 -331 c36 -20 66 -38 68 -40 3 -3 -186 -115 -194 -115 -2 0 -4 52
-4 116 l0 116 33 -20 c17 -11 61 -36 97 -57z m680 -41 l0 -116 -42 25 c-24 13
-69 39 -101 57 -32 18 -55 35 -52 38 9 9 179 110 188 111 4 1 7 -51 7 -115z"/>
<path d="M6058 4063 c7 -3 12 -23 12 -48 0 -25 -5 -45 -12 -48 -7 -3 1 -5 17
-5 17 0 24 2 18 5 -8 3 -13 23 -13 48 0 25 5 45 13 48 6 3 -1 5 -18 5 -16 0
-24 -2 -17 -5z"/>
<path d="M7470 3460 l0 -615 307 307 308 308 -308 307 -307 308 0 -615z"/>
<path d="M6197 4031 c-3 -16 -9 -42 -12 -57 l-6 -29 13 29 c11 23 16 26 25 15
6 -8 13 -23 17 -34 3 -13 4 -10 2 7 -2 16 3 29 11 32 19 8 13 50 -7 52 -9 0
-10 -1 -2 -3 6 -3 12 -13 12 -24 0 -15 -6 -20 -22 -17 -19 2 -22 8 -20 31 4
36 -4 35 -11 -2z"/>
<path d="M5941 4004 c0 -11 3 -14 6 -6 3 7 2 16 -1 19 -3 4 -6 -2 -5 -13z"/>
<path d="M5881 4003 c-2 -26 19 -63 37 -63 20 0 42 18 42 35 0 5 -5 2 -11 -7
-17 -29 -45 -22 -57 15 -5 17 -10 27 -11 20z"/>
<path d="M6341 3955 c-13 -25 -22 -47 -20 -49 2 -2 15 -9 29 -15 l25 -12 -25
19 c-20 17 -22 23 -11 36 10 12 18 13 35 5 21 -10 21 -10 1 6 -16 13 -18 19
-7 35 7 11 9 20 5 20 -5 0 -19 -20 -32 -45z"/>
<path d="M5742 3978 c-18 -18 -14 -44 11 -71 24 -27 72 -43 82 -27 4 6 -1 7
-11 3 -13 -5 -15 -2 -10 15 8 25 -16 77 -39 86 -21 8 -19 8 -33 -6z m42 -13
c34 -34 28 -86 -8 -72 -21 8 -40 51 -33 71 8 20 21 20 41 1z"/>
<path d="M6397 3979 c7 -7 15 -10 18 -7 3 3 -2 9 -12 12 -14 6 -15 5 -6 -5z"/>
<path d="M669 3881 c-12 -23 -27 -41 -33 -41 -5 0 -6 -3 -3 -6 8 -8 -24 -64
-36 -64 -4 0 -6 -4 -3 -9 3 -4 -1 -17 -9 -27 -8 -10 -15 -26 -15 -34 0 -8 28
-63 62 -122 72 -125 58 -127 143 23 l55 97 -56 99 c-78 135 -77 133 -105 84z"/>
<path d="M403 3877 c-27 -41 -122 -203 -263 -447 -62 -107 -115 -197 -117
-200 -2 -2 -8 2 -13 10 -6 10 -10 -32 -10 -117 l0 -133 78 0 77 0 201 353 201
352 -18 27 c-11 14 -19 31 -19 37 0 6 -5 11 -11 11 -5 0 -8 4 -5 9 3 5 -1 14
-9 21 -8 7 -24 32 -34 55 -25 56 -33 59 -58 22z"/>
<path d="M5610 3880 l-25 -19 40 -41 41 -41 24 28 c21 23 22 25 3 9 -24 -20
-53 -16 -53 8 0 7 7 17 16 20 9 4 14 9 10 13 -3 3 -15 -2 -26 -12 -18 -16 -20
-16 -26 -1 -4 10 1 25 11 36 23 25 17 25 -15 0z"/>
<path d="M6450 3890 c0 -5 5 -10 10 -10 6 0 10 5 10 10 0 6 -4 10 -10 10 -5 0
-10 -4 -10 -10z"/>
<path d="M6564 3853 c10 -17 -44 -64 -66 -59 -10 2 -18 0 -18 -5 0 -18 38 -8
74 20 33 26 34 30 19 42 -11 10 -14 10 -9 2z"/>
<path d="M12467 3815 c-9 -19 -21 -35 -27 -35 -5 0 -9 -4 -7 -8 4 -16 -66
-132 -80 -132 -7 0 -18 11 -23 25 -5 14 -14 25 -19 25 -5 0 -14 14 -20 30 -5
17 -15 30 -22 30 -7 0 -10 3 -6 6 7 8 -30 84 -41 84 -7 0 -99 -153 -111 -184
-2 -6 -14 -24 -26 -41 -12 -16 -77 -126 -145 -242 -67 -117 -124 -213 -126
-213 -4 0 -110 181 -125 213 -10 22 -4 37 54 138 36 62 63 117 61 121 -3 4
-27 8 -53 8 -68 0 -111 10 -111 26 0 8 -5 14 -11 14 -7 0 -9 10 -7 25 8 37 -8
40 -22 4 -8 -19 -10 -33 -4 -37 6 -4 3 -14 -8 -24 -18 -18 -25 -12 -10 8 4 5
-3 -2 -16 -16 -12 -14 -51 -76 -86 -138 l-65 -112 133 -233 133 -232 135 -3
136 -3 193 338 c106 186 197 346 204 355 9 14 20 2 70 -85 32 -56 63 -108 68
-115 10 -13 23 7 112 164 l29 52 -64 111 c-35 61 -66 111 -70 111 -3 0 -14
-16 -23 -35z"/>
<path d="M11655 3806 c-18 -27 -13 -46 11 -46 8 0 14 10 14 23 0 18 2 19 10 7
7 -11 10 -12 10 -2 0 7 -7 20 -15 28 -12 13 -16 12 -30 -10z"/>
<path d="M5513 3758 c-23 -30 -21 -37 18 -63 22 -14 43 -24 46 -21 3 3 -2 8
-11 12 -24 9 -20 34 7 35 16 1 18 2 5 6 -10 2 -18 10 -18 18 0 7 -7 16 -16 19
-21 8 -20 8 -31 -6z m34 -14 c8 -20 -9 -36 -30 -28 -13 5 -14 10 -6 25 12 23
28 25 36 3z"/>
<path d="M6623 3743 c-7 -2 -13 -20 -13 -39 0 -40 -25 -47 -40 -11 -6 15 -9
17 -9 6 -1 -22 25 -43 44 -35 8 3 15 18 15 34 0 15 5 33 12 40 13 13 11 14 -9
5z"/>
<path d="M5958 3677 c-63 -29 -122 -87 -153 -147 -21 -41 -25 -64 -25 -132 0
-70 4 -91 27 -135 30 -61 81 -111 144 -144 35 -18 61 -23 129 -23 78 -1 89 2
140 31 116 67 162 147 162 278 0 80 -2 88 -51 167 -68 112 -249 163 -373 105z
m185 -129 c68 -39 112 -113 100 -171 -19 -96 -118 -163 -200 -136 -57 18 -82
38 -104 80 -25 50 -24 105 4 154 39 69 140 106 200 73z"/>
<path d="M501 3116 c-33 -58 -61 -108 -61 -111 0 -3 58 -5 128 -5 l128 0 29
51 c17 28 29 55 28 60 -2 5 1 9 5 9 5 0 21 22 35 49 l27 49 -129 1 -128 2 -62
-105z"/>
<path d="M12297 3048 c-37 -64 -67 -117 -67 -119 0 -2 59 -2 132 1 l132 5 32
55 c18 30 30 58 27 62 -2 5 0 8 6 8 10 0 51 70 51 86 0 3 -29 4 -65 2 -36 -2
-65 0 -65 4 0 4 -12 3 -26 -2 -17 -7 -32 -7 -45 0 -15 9 -19 7 -19 -7 0 -15
-1 -15 -13 1 -12 17 -20 7 -80 -96z"/>
<path d="M5756 2830 c12 -18 12 -29 0 -50 -7 -10 -3 -10 11 3 11 9 23 17 28
17 4 0 1 -8 -6 -17 -13 -17 -13 -17 7 0 11 9 24 17 29 17 4 0 1 -8 -6 -17 -13
-17 -13 -17 7 0 11 9 24 17 29 17 4 0 1 -8 -6 -17 -13 -17 -13 -17 7 0 18 15
46 17 256 17 168 0 237 -3 240 -11 3 -8 12 -8 32 3 l27 14 -28 13 c-19 9 -29
9 -31 2 -3 -8 -79 -11 -240 -11 -210 0 -238 2 -256 18 -20 16 -20 16 -7 0 7
-10 10 -18 6 -18 -5 0 -18 8 -29 18 -20 16 -20 16 -7 0 7 -10 10 -18 6 -18 -5
0 -18 8 -29 18 -20 16 -20 16 -7 0 7 -10 10 -18 6 -18 -5 0 -18 8 -29 18 -14
11 -17 12 -10 2z"/>
<path d="M2208 2273 c7 -3 12 -23 12 -48 0 -25 -5 -45 -12 -48 -7 -3 1 -5 17
-5 17 0 24 2 18 5 -8 3 -13 23 -13 48 0 25 5 45 13 48 6 3 -1 5 -18 5 -16 0
-24 -2 -17 -5z"/>
<path d="M2087 2239 c4 -13 8 -18 11 -10 2 7 -1 18 -6 23 -8 8 -9 4 -5 -13z"/>
<path d="M2355 2248 c-15 -46 -22 -87 -14 -83 5 4 9 13 9 21 0 20 30 17 31 -3
0 -14 2 -15 6 -3 3 8 12 23 21 32 12 14 12 20 2 33 -15 18 -49 20 -55 3z m50
-18 c0 -8 -10 -16 -22 -18 -18 -3 -23 2 -23 18 0 16 5 21 23 18 12 -2 22 -10
22 -18z"/>
<path d="M130 2234 c-68 -6 -89 -13 -110 -34 -18 -18 -20 -33 -19 -167 l1
-148 26 58 c15 31 30 57 33 57 19 0 44 -136 27 -146 -5 -3 -8 -16 -8 -30 0
-13 -4 -24 -10 -24 -5 0 -10 -10 -10 -22 -1 -13 -14 -57 -30 -98 -25 -63 -30
-89 -30 -162 l0 -86 52 -19 c42 -14 83 -18 198 -18 213 0 294 27 356 117 31
45 44 48 44 11 0 -19 -15 -41 -53 -78 -52 -50 -55 -52 -152 -69 -55 -9 -146
-18 -201 -19 l-102 -2 -7 -113 c-3 -63 -4 -117 0 -120 22 -23 289 -5 368 24
20 8 68 14 104 14 37 0 85 6 108 14 22 8 72 24 112 36 134 40 222 142 165 192
-35 31 -189 106 -262 128 -41 12 -80 27 -86 34 -6 6 -16 53 -23 104 -13 101
-46 196 -84 242 -14 16 -28 46 -32 66 -17 93 -93 192 -176 232 -46 22 -124 32
-199 26z m69 -400 c-5 -6 -5 -15 -1 -19 4 -5 -1 -5 -11 -2 -10 4 -23 7 -28 7
-10 0 1 32 14 42 14 9 37 -15 26 -28z m109 -14 c13 0 21 -4 17 -10 -4 -6 -1
-17 5 -25 10 -13 8 -15 -13 -15 -14 0 -29 -4 -32 -10 -9 -15 -25 -12 -25 5 0
8 -7 15 -17 15 -15 0 -15 1 0 18 10 10 17 25 17 32 0 11 3 11 12 2 7 -7 23
-12 36 -12z m-65 -70 c26 -30 29 -38 25 -87 -7 -82 -48 -134 -118 -151 -35 -9
-61 -10 -74 -4 -19 8 -19 10 10 16 53 12 107 89 113 158 2 33 -1 40 -31 58
-18 11 -43 20 -55 20 -13 0 -23 4 -23 9 0 14 30 20 80 16 35 -2 50 -10 73 -35z
m91 -59 c10 -16 -5 -39 -23 -34 -24 6 -25 43 -1 43 10 0 21 -4 24 -9z"/>
<path d="M2031 2224 c0 -11 3 -14 6 -6 3 7 2 16 -1 19 -3 4 -6 -2 -5 -13z"/>
<path d="M3717 2219 c-136 -32 -234 -152 -245 -298 -7 -101 39 -184 123 -222
76 -35 175 -15 205 42 13 23 12 23 -35 3 -50 -20 -114 -15 -145 13 -16 15 -31
21 -45 16 -18 -5 -18 -4 -6 11 18 21 0 66 -26 67 -14 0 -13 2 5 9 27 11 29 49
5 87 -17 26 -17 26 4 14 31 -16 53 17 46 68 l-5 36 20 -24 c19 -24 21 -24 46
-8 15 10 26 27 26 40 0 12 5 29 10 37 7 11 10 5 10 -22 0 -36 2 -38 33 -38 25
0 36 6 49 30 18 31 45 42 34 14 -17 -44 -16 -59 4 -72 18 -11 26 -9 58 13 56
38 69 31 28 -15 -34 -38 -36 -42 -21 -63 24 -35 19 -47 -22 -47 -52 0 -110
-17 -163 -48 l-45 -26 40 -12 c54 -17 112 -16 160 1 21 8 40 13 42 12 1 -2
-93 -185 -209 -407 -116 -223 -213 -410 -215 -417 -4 -10 13 -13 70 -13 l75 0
182 353 c100 193 185 356 190 360 4 4 27 -38 52 -95 58 -133 272 -612 275
-617 5 -7 133 -13 150 -7 17 7 17 8 0 20 -9 8 -28 29 -42 47 -59 82 -67 119
-26 119 21 0 25 -9 36 -75 7 -45 30 -85 47 -85 17 0 4 129 -42 415 -44 276
-58 335 -93 386 -27 41 -117 97 -166 104 -74 11 -84 18 -99 65 -55 168 -217
266 -375 229z m537 -603 c-5 -37 -3 -45 18 -62 40 -31 45 -48 10 -30 -63 32
-90 96 -56 130 24 24 34 10 28 -38z m36 -37 c0 -6 -4 -7 -10 -4 -5 3 -10 11
-10 16 0 6 5 7 10 4 6 -3 10 -11 10 -16z"/>
<path d="M2101 2188 c0 -14 -7 -29 -13 -31 -10 -4 -10 -6 0 -6 16 -1 25 22 19
46 -3 12 -5 9 -6 -9z"/>
<path d="M2497 2165 l-26 -45 22 -15 c12 -8 26 -15 32 -15 5 1 -2 7 -17 16
-24 12 -26 17 -16 34 9 14 16 16 31 8 10 -5 21 -7 24 -5 2 3 -5 8 -16 12 -23
7 -25 13 -12 34 7 10 13 11 32 1 23 -11 23 -10 5 4 -28 23 -31 21 -59 -29z"/>
<path d="M2041 2189 c-1 -9 7 -23 17 -30 15 -12 16 -12 6 1 -6 8 -14 22 -17
30 -5 13 -6 12 -6 -1z"/>
<path d="M1890 2179 c0 -5 5 -7 10 -4 6 3 10 8 10 11 0 2 -4 4 -10 4 -5 0 -10
-5 -10 -11z"/>
<path d="M1944 2170 c22 -33 21 -70 -1 -71 -13 0 -11 -3 6 -10 13 -5 29 -8 35
-5 6 2 4 5 -5 5 -11 1 -14 9 -11 29 2 19 -3 36 -18 52 l-22 25 16 -25z"/>
<path d="M13881 2180 c0 -8 4 -24 9 -35 5 -13 9 -14 9 -5 0 8 -4 24 -9 35 -5
13 -9 14 -9 5z"/>
<path d="M13821 2170 c0 -8 4 -24 9 -35 5 -13 9 -14 9 -5 0 8 -4 24 -9 35 -5
13 -9 14 -9 5z"/>
<path d="M11910 2161 c-30 -4 -65 -12 -78 -20 -29 -16 -99 -123 -111 -170 -46
-178 -47 -191 -15 -191 8 0 33 9 55 21 32 16 46 32 66 76 l26 56 15 -28 c16
-32 26 -125 13 -125 -5 0 -11 -17 -14 -37 -7 -44 -79 -232 -102 -267 -12 -18
-34 -28 -88 -41 -40 -10 -105 -33 -145 -51 -40 -19 -76 -34 -80 -34 -5 0 -23
-15 -41 -34 -57 -59 -30 -102 83 -131 74 -19 76 -19 109 9 65 56 109 90 132
102 47 24 48 26 16 46 -34 22 -43 66 -17 87 11 9 15 6 19 -17 5 -24 17 -34 68
-57 83 -37 237 -45 379 -21 104 18 150 42 203 108 l30 37 -13 93 c-15 111 -51
223 -84 258 -14 14 -28 42 -31 63 -19 103 -100 208 -189 247 -49 22 -131 30
-206 21z m87 -402 c-13 -21 -47 -13 -47 11 0 21 29 31 46 15 8 -7 8 -15 1 -26z
m111 -9 c7 0 10 -5 7 -11 -4 -6 1 -17 11 -24 18 -13 17 -14 -12 -15 -21 0 -34
-6 -39 -17 -6 -16 -8 -15 -16 5 -4 12 -16 22 -26 22 -17 1 -17 1 0 14 9 7 17
19 17 26 0 8 8 10 23 6 12 -3 28 -6 35 -6z m-82 -62 c29 -27 35 -40 36 -74 1
-106 -69 -184 -167 -184 -44 0 -45 12 -2 28 45 17 89 83 95 142 4 43 2 49 -25
68 -16 11 -44 22 -63 24 -35 4 -35 4 -10 15 49 23 97 16 136 -19z m101 -89
c-13 -20 -33 -15 -40 11 -3 12 1 20 12 22 25 5 40 -13 28 -33z"/>
<path d="M9544 2144 c3 -9 6 -279 6 -600 l0 -584 595 0 595 0 0 600 0 600
-601 0 c-544 0 -601 -2 -595 -16z m696 -129 l0 -45 -120 0 -120 0 2 -360 3
-361 -50 3 -50 3 -3 358 -2 357 -115 0 -115 0 0 45 0 45 285 0 285 0 0 -45z
m280 -138 c34 -12 35 -14 38 -66 3 -60 8 -58 -73 -27 -54 21 -132 19 -180 -3
-47 -21 -60 -36 -68 -75 -13 -74 24 -116 173 -199 123 -68 173 -134 173 -227
0 -92 -34 -149 -113 -191 -38 -20 -60 -24 -140 -24 -69 0 -108 5 -142 18 l-48
19 0 59 0 60 43 -24 c125 -72 282 -50 302 43 16 74 -16 118 -147 195 -159 94
-198 142 -198 243 1 133 99 211 265 211 44 0 96 -5 115 -12z"/>
<path d="M1890 2144 c0 -6 7 -19 16 -30 14 -18 14 -18 3 6 -14 31 -19 36 -19
24z"/>
<path d="M6035 2127 c38 -23 156 -142 183 -184 l27 -43 98 0 c65 0 97 4 97 11
0 8 5 8 15 -1 12 -10 20 -7 44 19 18 19 39 31 55 31 14 0 26 5 26 10 0 6 -4
10 -10 10 -5 0 -10 5 -10 10 0 6 8 10 18 10 9 0 23 9 30 21 11 18 11 24 -5 41
-54 60 -147 78 -397 77 -152 0 -187 -3 -171 -12z"/>
<path d="M13684 2105 c-3 -8 -4 -20 -2 -27 3 -7 7 -1 10 15 6 29 1 36 -8 12z"/>
<path d="M13737 2096 c10 -13 19 -23 21 -21 7 6 -19 45 -29 45 -5 0 -2 -11 8
-24z"/>
<path d="M1766 2091 c-17 -19 -17 -21 14 -60 34 -42 47 -44 69 -8 14 22 14 22
-7 3 -18 -16 -24 -17 -37 -6 -14 12 -14 15 2 34 18 21 18 21 -3 3 -19 -16 -22
-16 -34 -2 -11 13 -10 19 5 35 10 11 16 20 13 20 -3 0 -13 -9 -22 -19z"/>
<path d="M2600 2100 c0 -5 5 -10 10 -10 6 0 10 5 10 10 0 6 -4 10 -10 10 -5 0
-10 -4 -10 -10z"/>
<path d="M13840 2101 c0 -10 19 -25 25 -20 1 2 -3 10 -11 17 -8 7 -14 8 -14 3z"/>
<path d="M2715 2059 c4 -6 -3 -21 -16 -35 -23 -25 -54 -32 -62 -14 -3 6 -4 5
-3 -2 5 -24 38 -20 66 7 18 17 33 24 42 19 7 -4 4 2 -6 14 -20 23 -32 29 -21
11z"/>
<path d="M13695 2047 c9 -23 73 -43 88 -27 9 8 8 10 -5 5 -10 -4 -18 -2 -18 4
0 6 -7 8 -15 4 -9 -3 -25 3 -36 13 -17 15 -19 16 -14 1z"/>
<path d="M13561 2019 l-25 -20 40 -40 40 -40 24 28 25 28 -26 -22 c-19 -18
-28 -20 -37 -11 -15 15 -16 38 -2 38 6 0 10 5 10 12 0 6 -7 5 -18 -5 -14 -13
-21 -14 -30 -5 -9 9 -7 17 10 35 26 28 21 29 -11 2z"/>
<path d="M1667 1962 c-10 -10 -17 -23 -17 -28 0 -11 80 -58 87 -51 2 3 -5 8
-16 12 -26 8 -27 25 -2 32 19 5 19 6 -2 29 -25 29 -29 29 -50 6z m41 -15 c4
-21 -25 -34 -40 -19 -8 8 -8 16 2 27 16 19 34 15 38 -8z"/>
<path d="M7470 1745 l0 -235 200 0 200 0 0 -40 0 -40 160 0 160 0 0 40 0 40
360 0 360 0 0 235 0 235 -720 0 -720 0 0 -235z m400 0 l0 -165 -40 0 -40 0 0
120 0 120 -40 0 -40 0 0 -120 0 -120 -80 0 -80 0 0 165 0 165 160 0 160 0 0
-165z m400 0 l0 -165 -80 0 -80 0 0 -40 0 -40 -80 0 -80 0 0 205 0 205 160 0
160 0 0 -165z m560 0 l0 -165 -40 0 -40 0 0 121 0 120 -37 -3 -38 -3 -3 -117
-3 -118 -39 0 -40 0 0 120 0 120 -40 0 -40 0 0 -120 0 -120 -80 0 -80 0 0 165
0 165 240 0 240 0 0 -165z"/>
<path d="M8110 1745 l0 -75 40 0 40 0 0 75 0 75 -40 0 -40 0 0 -75z"/>
<path d="M2807 1929 c4 -13 8 -18 11 -10 2 7 -1 18 -6 23 -8 8 -9 4 -5 -13z"/>
<path d="M2771 1903 c-1 -28 -28 -31 -48 -5 -13 15 -13 15 -3 -5 19 -40 73
-21 57 19 -3 7 -6 3 -6 -9z"/>
<path d="M2140 1901 c-73 -23 -167 -113 -193 -186 -50 -145 13 -309 146 -377
162 -82 343 -20 422 143 20 42 25 68 25 127 0 67 -4 82 -35 138 -37 65 -81
106 -152 143 -32 16 -59 21 -115 20 -40 0 -84 -4 -98 -8z m185 -161 c94 -58
91 -202 -6 -268 -28 -20 -44 -23 -92 -20 -66 5 -102 27 -133 81 -18 33 -21 54
-15 129 2 14 56 72 85 89 39 23 113 18 161 -11z"/>
<path d="M13463 1898 c-24 -32 -23 -38 16 -63 23 -14 44 -25 48 -25 5 0 0 5
-9 11 -10 5 -18 17 -18 24 0 8 8 15 18 16 10 0 12 3 5 6 -7 2 -13 11 -13 18 0
7 -7 16 -16 19 -21 8 -20 8 -31 -6z m34 -14 c8 -20 -9 -36 -30 -28 -13 5 -14
10 -6 25 12 23 28 25 36 3z"/>
<path d="M13891 1808 c-90 -46 -137 -111 -162 -221 -14 -64 -4 -128 31 -197
36 -69 129 -138 208 -153 l32 -6 0 72 0 73 -42 19 c-52 24 -88 87 -88 151 0
54 50 124 98 139 l32 9 0 73 c0 70 -1 73 -24 73 -13 0 -51 -14 -85 -32z"/>
<path d="M12447 1453 c-9 -47 -71 -110 -125 -127 -79 -25 -160 -36 -276 -36
l-111 0 -2 -53 c-1 -28 -5 -82 -8 -118 -6 -63 -5 -67 17 -73 64 -17 270 1 351
30 20 8 67 14 104 14 39 0 92 8 127 20 34 11 86 26 116 35 70 19 145 82 159
132 13 44 11 47 -47 79 -26 14 -65 36 -87 49 -33 20 -96 42 -196 71 -12 3 -18
-4 -22 -23z"/>
<path d="M0 1258 l0 -103 34 -11 c33 -10 36 -9 45 15 20 55 43 173 35 181 -5
4 -33 11 -61 15 l-53 7 0 -104z"/>
<path d="M11724 1238 c-85 -58 -104 -74 -104 -90 0 -15 78 -47 155 -63 43 -9
81 -18 85 -20 8 -5 50 153 50 189 0 21 -5 26 -24 26 -14 0 -36 4 -49 9 -21 8
-37 1 -113 -51z"/>
<path d="M2500 1030 c0 -6 -106 -10 -297 -11 -164 0 -292 -3 -285 -6 10 -4 10
-8 0 -21 -11 -14 -9 -14 8 1 29 24 41 21 18 -5 l-19 -23 26 23 c14 12 29 22
34 22 4 0 0 -10 -11 -22 l-19 -23 26 23 c14 12 29 22 34 22 4 0 0 -10 -11 -22
l-19 -23 26 23 c25 21 31 22 256 22 175 0 232 -3 235 -12 4 -10 11 -10 34 0
28 13 28 14 9 28 -22 16 -45 18 -45 4z"/>
<path d="M13706 970 c12 -18 12 -29 0 -50 -7 -10 -3 -10 11 3 11 9 23 17 28
17 4 0 1 -8 -6 -17 -13 -17 -13 -17 7 0 11 9 24 17 29 17 4 0 1 -8 -6 -17 -13
-17 -13 -17 7 0 11 9 24 17 29 17 4 0 1 -8 -6 -17 -13 -17 -13 -17 6 -1 15 13
44 18 110 21 l90 3 -89 2 c-68 2 -94 6 -110 20 -20 16 -20 16 -7 0 7 -10 10
-18 6 -18 -5 0 -18 8 -29 18 -20 16 -20 16 -7 0 7 -10 10 -18 6 -18 -5 0 -18
8 -29 18 -20 16 -20 16 -7 0 7 -10 10 -18 6 -18 -5 0 -18 8 -29 18 -14 11 -17
12 -10 2z"/>
<path d="M6155 405 c-66 -24 -214 -77 -330 -118 l-210 -75 1 -39 c0 -21 4 -68
8 -106 l8 -67 260 2 260 3 61 137 c33 76 63 138 67 138 4 0 37 -63 73 -140
l66 -140 264 0 264 0 13 106 c6 58 11 107 9 108 -4 4 -689 236 -692 235 -1 0
-56 -20 -122 -44z"/>
<path d="M9975 411 c-22 -11 -55 -38 -73 -60 -39 -48 -70 -66 -131 -75 -92
-14 -121 -50 -121 -147 0 -42 -5 -55 -36 -89 l-36 -40 596 0 c406 0 596 3 596
10 0 26 -45 95 -94 144 -118 118 -251 183 -418 206 -45 7 -93 19 -108 29 -30
22 -85 41 -114 41 -12 0 -39 -9 -61 -19z m462 -287 c8 -20 -21 -49 -41 -41 -9
4 -16 18 -16 32 0 20 5 25 25 25 14 0 28 -7 32 -16z"/>
<path d="M185 270 c0 -27 3 -50 8 -50 4 0 7 23 7 50 0 28 -3 50 -7 50 -5 0 -8
-22 -8 -50z"/>
<path d="M51 300 c0 -8 4 -24 9 -35 5 -13 9 -14 9 -5 0 8 -4 24 -9 35 -5 13
-9 14 -9 5z"/>
<path d="M320 293 c0 -15 2 -15 9 -4 11 18 41 7 41 -15 0 -12 -7 -15 -30 -12
-18 3 -30 0 -30 -7 0 -12 39 -14 58 -2 17 11 15 44 -4 51 -28 11 -44 6 -44
-11z"/>
<path d="M1 254 c0 -11 3 -14 6 -6 3 7 2 16 -1 19 -3 4 -6 -2 -5 -13z"/>
<path d="M462 214 c-13 -26 -21 -48 -18 -51 2 -2 7 5 11 17 6 17 12 21 33 16
26 -6 26 -6 5 6 -17 10 -19 17 -12 31 8 14 14 15 32 7 21 -11 21 -11 3 4 -11
9 -23 16 -26 16 -3 0 -16 -21 -28 -46z"/>
<path d="M11720 242 c0 -4 24 -48 53 -98 28 -49 58 -102 66 -117 l14 -27 134
0 133 0 -30 53 c-17 28 -49 85 -72 125 l-42 72 -128 0 c-70 0 -128 -4 -128 -8z"/>
<path d="M12235 133 c-37 -65 -70 -122 -72 -126 -3 -4 55 -6 127 -5 l132 3 69
119 c38 65 69 120 69 122 0 2 -58 4 -129 4 l-129 0 -67 -117z"/>
<path d="M67 221 c-4 -17 -3 -21 5 -13 5 5 8 16 6 23 -3 8 -7 3 -11 -10z"/>
<path d="M10 221 c0 -10 29 -36 34 -30 1 2 -6 12 -16 22 -10 9 -18 13 -18 8z"/>
<path d="M351 214 c0 -11 3 -14 6 -6 3 7 2 16 -1 19 -3 4 -6 -2 -5 -13z"/>
<path d="M467 149 c7 -7 15 -10 18 -7 3 3 -2 9 -12 12 -14 6 -15 5 -6 -5z"/>
<path d="M570 150 c0 -5 5 -10 10 -10 6 0 10 5 10 10 0 6 -4 10 -10 10 -5 0
-10 -4 -10 -10z"/>
<path d="M683 108 c4 -11 -4 -25 -24 -43 -33 -27 -45 -31 -52 -15 -3 6 -4 5
-3 -2 4 -23 24 -19 59 11 19 17 38 27 43 23 4 -4 2 2 -6 13 -21 30 -24 32 -17
13z"/>
<path d="M10809 29 c4 -13 14 -25 20 -27 10 -3 10 0 2 16 -16 30 -33 38 -22
11z"/>
</g>
</svg>
